<svg version="1.1" id="Layer_1" xmlns="http://www.w3.org/2000/svg" xmlns:xlink="http://www.w3.org/1999/xlink" x="0px" y="0px"
     width="40px" height="40px" viewBox="0 0 128 128" enable-background="new 0 0 128 128" xml:space="preserve">
<path fill="#384458" opacity="1.000000" stroke="none"
      d="
M85.000000,129.000000
	C56.666668,129.000000 28.833334,129.000000 1.000000,129.000000
	C1.000000,86.333336 1.000000,43.666668 1.000000,1.000000
	C43.666668,1.000000 86.333336,1.000000 129.000000,1.000000
	C129.000000,43.666668 129.000000,86.333336 129.000000,129.000000
	C114.500000,129.000000 100.000000,129.000000 85.000000,129.000000
M95.745201,100.715248
	C102.686562,90.938148 102.030449,80.234062 93.744797,72.318787
	C88.228767,67.094154 83.048904,61.443516 77.108925,56.756123
	C70.175682,51.284920 58.704407,51.217087 53.322735,56.231544
	C47.634083,61.532032 42.381264,67.300278 36.328342,73.191849
	C28.638802,81.942230 28.462437,92.247086 36.162136,101.678154
	C45.632904,110.010742 56.073727,110.195137 65.503891,102.181686
	C65.503891,102.181686 65.938454,102.194389 66.302628,102.758461
	C76.553001,110.403831 86.899445,109.795074 95.745201,100.715248
M41.143448,50.299610
	C39.890751,45.004532 36.356823,42.026352 31.177467,41.249424
	C26.756315,40.586235 23.010973,42.333630 20.320414,45.930229
	C17.228613,50.063187 17.220835,55.328426 20.123636,59.378952
	C23.201153,63.673271 28.912180,65.460800 33.830868,63.669273
	C38.981441,61.793282 41.412209,57.662224 41.143448,50.299610
M47.405914,44.610577
	C57.180206,47.561916 64.568733,38.899055 62.662659,30.978348
	C61.432724,25.867331 56.741642,22.122181 51.492142,22.003729
	C46.137897,21.882914 41.262630,25.448122 39.969048,30.430393
	C38.407887,36.443245 40.456936,40.668182 47.405914,44.610577
M90.675339,37.991379
	C92.448036,30.587486 90.097923,25.162624 84.115715,22.849543
	C78.194748,20.560143 71.747849,23.140373 69.073769,28.869751
	C66.547981,34.281403 68.827751,40.883995 74.221588,43.778706
	C80.046837,46.904934 86.279701,44.915016 90.675339,37.991379
M89.932541,55.591351
	C91.521835,60.968632 95.080811,63.943283 100.710297,64.185982
	C105.841789,64.407211 109.751640,62.231270 111.906662,57.535049
	C114.064156,52.833450 113.162682,48.450661 109.645432,44.695309
	C106.273788,41.095417 101.061287,40.189445 96.371460,42.235939
	C91.600784,44.317707 89.441963,48.448704 89.932541,55.591351
z"/>
    <path fill="#00D3FD" opacity="1.000000" stroke="none"
          d="
M36.938065,72.864197
	C42.381264,67.300278 47.634083,61.532032 53.322735,56.231544
	C58.704407,51.217087 70.175682,51.284920 77.108925,56.756123
	C83.048904,61.443516 88.228767,67.094154 93.700439,72.893509
	C89.428787,78.288681 85.201492,83.109138 80.650253,87.926392
	C79.894836,87.924530 79.463356,87.925880 78.919876,87.608803
	C75.222389,83.412361 71.831612,79.316727 67.913155,75.810860
	C66.945427,74.945030 63.780796,75.338058 62.466526,76.300316
	C59.553516,78.433090 57.178417,81.298889 54.574837,83.856476
	C52.295284,86.095764 49.892101,86.313400 47.596657,83.987434
	C43.989979,80.332794 40.485703,76.577103 36.938065,72.864197
z"/>
    <path fill="#00BFF9" opacity="1.000000" stroke="none"
          d="
M36.633202,73.028023
	C40.485703,76.577103 43.989979,80.332794 47.596657,83.987434
	C49.892101,86.313400 52.295284,86.095764 54.574837,83.856476
	C57.178417,81.298889 59.553516,78.433090 62.466526,76.300316
	C63.780796,75.338058 66.945427,74.945030 67.913155,75.810860
	C71.831612,79.316727 75.222389,83.412361 78.729828,87.891922
	C74.414009,93.060440 70.176231,97.627419 65.938454,102.194389
	C65.938454,102.194389 65.503891,102.181686 65.098694,101.896400
	C61.720955,98.502037 58.794006,95.347725 55.765305,92.294342
	C51.069782,87.560585 51.058933,87.683258 46.320339,92.125618
	C42.976154,95.260742 39.351002,98.096161 35.851292,101.065392
	C28.462437,92.247086 28.638802,81.942230 36.633202,73.028023
z"/>
    <path fill="#01CBF8" opacity="1.000000" stroke="none"
          d="
M41.201187,50.672485
	C41.412209,57.662224 38.981441,61.793282 33.830868,63.669273
	C28.912180,65.460800 23.201153,63.673271 20.123636,59.378952
	C17.220835,55.328426 17.228613,50.063187 20.320414,45.930229
	C23.010973,42.333630 26.756315,40.586235 31.177467,41.249424
	C36.356823,42.026352 39.890751,45.004532 41.201187,50.672485
z"/>
    <path fill="#01CBF8" opacity="1.000000" stroke="none"
          d="
M47.042034,44.437248
	C40.456936,40.668182 38.407887,36.443245 39.969048,30.430393
	C41.262630,25.448122 46.137897,21.882914 51.492142,22.003729
	C56.741642,22.122181 61.432724,25.867331 62.662659,30.978348
	C64.568733,38.899055 57.180206,47.561916 47.042034,44.437248
z"/>
    <path fill="#01CAF8" opacity="1.000000" stroke="none"
          d="
M90.485664,38.319069
	C86.279701,44.915016 80.046837,46.904934 74.221588,43.778706
	C68.827751,40.883995 66.547981,34.281403 69.073769,28.869751
	C71.747849,23.140373 78.194748,20.560143 84.115715,22.849543
	C90.097923,25.162624 92.448036,30.587486 90.485664,38.319069
z"/>
    <path fill="#01CAF8" opacity="1.000000" stroke="none"
          d="
M89.854813,55.222961
	C89.441963,48.448704 91.600784,44.317707 96.371460,42.235939
	C101.061287,40.189445 106.273788,41.095417 109.645432,44.695309
	C113.162682,48.450661 114.064156,52.833450 111.906662,57.535049
	C109.751640,62.231270 105.841789,64.407211 100.710297,64.185982
	C95.080811,63.943283 91.521835,60.968632 89.854813,55.222961
z"/>
    <path fill="#01B3EC" opacity="1.000000" stroke="none"
          d="
M36.006714,101.371773
	C39.351002,98.096161 42.976154,95.260742 46.320339,92.125618
	C51.058933,87.683258 51.069782,87.560585 55.765305,92.294342
	C58.794006,95.347725 61.720955,98.502037 64.881348,101.899902
	C56.073727,110.195137 45.632904,110.010742 36.006714,101.371773
z"/>
    <path fill="#01B3EC" opacity="1.000000" stroke="none"
          d="
M66.120544,102.476425
	C70.176231,97.627419 74.414009,93.060440 78.841835,88.210350
	C79.463356,87.925880 79.894836,87.924530 80.839005,88.209427
	C85.952370,92.684097 90.553040,96.872520 95.153709,101.060944
	C86.899445,109.795074 76.553001,110.403831 66.120544,102.476425
z"/>
    <path fill="#00BFF9" opacity="1.000000" stroke="none"
          d="
M95.449455,100.888092
	C90.553040,96.872520 85.952370,92.684097 81.162949,88.212639
	C85.201492,83.109138 89.428787,78.288681 93.848526,73.190048
	C102.030449,80.234062 102.686562,90.938148 95.449455,100.888092
z"/>
</svg>